<?xml version="1.0" encoding="utf-8"?>
<!-- Generator: Adobe Illustrator 16.0.4, SVG Export Plug-In . SVG Version: 6.00 Build 0)  -->
<!DOCTYPE svg PUBLIC "-//W3C//DTD SVG 1.1//EN" "http://www.w3.org/Graphics/SVG/1.1/DTD/svg11.dtd">
<svg version="1.1"
	 id="svg2211" xmlns:inkscape="http://www.inkscape.org/namespaces/inkscape" xmlns:sodipodi="http://sodipodi.sourceforge.net/DTD/sodipodi-0.dtd" xmlns:svg="http://www.w3.org/2000/svg" xmlns:rdf="http://www.w3.org/1999/02/22-rdf-syntax-ns#" xmlns:cc="http://web.resource.org/cc/" xmlns:dc="http://purl.org/dc/elements/1.1/" inkscape:output_extension="org.inkscape.output.svg.inkscape" sodipodi:version="0.32" sodipodi:docbase="/Users/johnolsen/Desktop" sodipodi:docname="alcaline_spiral_calendar.svg" inkscape:version="0.45.1"
	 xmlns="http://www.w3.org/2000/svg" xmlns:xlink="http://www.w3.org/1999/xlink" x="0px" y="0px" width="24px" height="24px"
	 viewBox="-0.104 0.083 24 24" enable-background="new -0.104 0.083 24 24" xml:space="preserve">
<sodipodi:namedview  width="120px" height="100px" id="base" objecttolerance="10.0" guidetolerance="10.0" gridtolerance="10.0" borderopacity="1.0" bordercolor="#666666" pagecolor="#ffffff" inkscape:zoom="6.56" inkscape:cx="60" inkscape:cy="54.721913" inkscape:current-layer="g3439" inkscape:window-y="43" inkscape:window-x="127" inkscape:window-height="843" inkscape:pageopacity="0.0" inkscape:window-width="1052" inkscape:pageshadow="2">
	</sodipodi:namedview>
<g id="layer1" transform="translate(-189.45636,-30.066594)" inkscape:label="dessin" inkscape:groupmode="layer">
	<g id="g3439" transform="matrix(1.8246513,0,0,1.8246513,-180.71976,-66.388114)">
		<g id="g3208" transform="matrix(0.9795918,0,0,1.019212,60.834184,-13.773973)">
			<path id="rect2221" fill="#694C30" d="M146.377,66.424h10.797c0.207,0,0.375,0.161,0.375,0.36v10.827
				c0,0.199-0.168,0.36-0.375,0.36h-10.797c-0.207,0-0.375-0.161-0.375-0.36V66.784C146.002,66.585,146.17,66.424,146.377,66.424z"
				/>
			
				<linearGradient id="rect3194_1_" gradientUnits="userSpaceOnUse" x1="-0.447" y1="100.7078" x2="11.1007" y2="97.3243" gradientTransform="matrix(1.7874 0 0 -1.8597 146.5343 257.5446)">
				<stop  offset="0" style="stop-color:#BE9E70"/>
				<stop  offset="1" style="stop-color:#694C30"/>
			</linearGradient>
			<path id="rect3194" fill="url(#rect3194_1_)" d="M146.137,66.183h10.797c0.207,0,0.375,0.161,0.375,0.36v10.827
				c0,0.199-0.168,0.36-0.375,0.36h-10.797c-0.207,0-0.375-0.161-0.375-0.36V66.543C145.761,66.344,145.929,66.183,146.137,66.183z"
				/>
		</g>
		<g id="g3432">
			<g id="g6203" transform="matrix(1,0,0,0.9988278,29.258527,-13.928957)">
				
					<linearGradient id="rect3212_1_" gradientUnits="userSpaceOnUse" x1="145.6238" y1="73.3188" x2="145.6913" y2="77.7211" gradientTransform="matrix(1.8247 0 0 -1.8225 -85.5965 205.6621)">
					<stop  offset="0" style="stop-color:#E40102"/>
					<stop  offset="1" style="stop-color:#BB7874"/>
				</linearGradient>
				
					<linearGradient id="rect3212_2_" gradientUnits="userSpaceOnUse" x1="145.6401" y1="75.5577" x2="145.6401" y2="67.3173" gradientTransform="matrix(1.8247 0 0 -1.8225 -85.5965 205.6621)">
					<stop  offset="0" style="stop-color:#7C1F16"/>
					<stop  offset="1" style="stop-color:#7C1F16;stop-opacity:0"/>
				</linearGradient>
				
					<rect id="rect3212" x="175.166" y="68.257" fill="url(#rect3212_1_)" stroke="url(#rect3212_2_)" stroke-width="0.6" stroke-linecap="round" width="9.96" height="3.705"/>
				
					<linearGradient id="rect5193_1_" gradientUnits="userSpaceOnUse" x1="145.6391" y1="74.4255" x2="145.4175" y2="72.5936" gradientTransform="matrix(1.8247 0 0 -1.8225 -85.5965 205.8122)">
					<stop  offset="0" style="stop-color:#AA090A"/>
					<stop  offset="1" style="stop-color:#E50102"/>
				</linearGradient>
				<path id="rect5193" sodipodi:nodetypes="ccccccc" fill="url(#rect5193_1_)" d="M175.189,68.415l-0.028,3.506
					c0.077,0.008,9.903,0,9.931,0c0.023,0,0.023-0.168,0.008-0.631c-2.546-0.03-3.402-0.568-4.541-1.067
					c-1.031-0.418-3.241-0.02-4.286-0.316C175.507,69.585,175.559,69.272,175.189,68.415z"/>
			</g>
			<path id="text2379" fill="#FFFFFF" d="M205.022,56.145h0.454l0.574,1.083v-1.083h0.386v1.578h-0.455l-0.574-1.082v1.082h-0.386
				V56.145 M207.379,56.781c-0.084,0-0.148,0.03-0.192,0.091c-0.043,0.06-0.065,0.146-0.065,0.26s0.022,0.201,0.065,0.261
				c0.045,0.06,0.109,0.09,0.192,0.09c0.083,0,0.146-0.03,0.189-0.09c0.044-0.06,0.066-0.147,0.066-0.261s-0.022-0.2-0.066-0.26
				C207.525,56.812,207.461,56.781,207.379,56.781 M207.379,56.511c0.204,0,0.363,0.055,0.477,0.165
				c0.115,0.11,0.173,0.263,0.173,0.457c0,0.195-0.058,0.347-0.173,0.457c-0.114,0.11-0.273,0.165-0.477,0.165
				s-0.364-0.055-0.48-0.165c-0.115-0.11-0.173-0.262-0.173-0.457c0-0.194,0.058-0.347,0.173-0.457
				C207.015,56.566,207.174,56.511,207.379,56.511 M208.155,56.539h0.378l0.295,0.818l0.294-0.818h0.379l-0.466,1.184h-0.415
				L208.155,56.539"/>
		</g>
		<g id="g3416">
			<g id="g3403">
				<g id="g3392">
					
						<radialGradient id="rect3214_1_" cx="135.2804" cy="210.1611" r="5.0517" gradientTransform="matrix(0 1.8042 1.8459 0 -182.6008 -185.1796)" gradientUnits="userSpaceOnUse">
						<stop  offset="0" style="stop-color:#FFFEFE"/>
						<stop  offset="1" style="stop-color:#D5D7DA"/>
					</radialGradient>
					
						<rect id="rect3214" x="204.415" y="58.063" fill="url(#rect3214_1_)" stroke="#AFA497" stroke-width="0.5996" stroke-linecap="round" width="9.96" height="7.065"/>
					<g id="g11086" transform="matrix(1,0,0,0.9988278,-20.881358,-12.445764)">
						<path id="path9134" fill="none" stroke="#C60002" stroke-opacity="0.1014" d="M225.374,71.358h9.909"/>
						<path id="path9136" fill="none" stroke="#C60002" stroke-opacity="0.1014" d="M225.374,72.322h9.909"/>
						<path id="path9138" fill="none" stroke="#C60002" stroke-opacity="0.1014" d="M225.374,77.142h9.909"/>
						<path id="path9140" fill="none" stroke="#C60002" stroke-opacity="0.1014" d="M225.374,76.178h9.909"/>
						<path id="path9142" fill="none" stroke="#C60002" stroke-opacity="0.1014" d="M225.374,75.214h9.909"/>
						<path id="path9144" fill="none" stroke="#C60002" stroke-opacity="0.1014" d="M225.374,74.25h9.909"/>
						<path id="path9146" fill="none" stroke="#C60002" stroke-opacity="0.1014" d="M225.374,73.286h9.909"/>
					</g>
				</g>
				
					<linearGradient id="path17237_1_" gradientUnits="userSpaceOnUse" x1="212.42" y1="68.3783" x2="212.0267" y2="68.761" gradientTransform="matrix(1.8247 0 0 -1.8247 -173.3877 189.5637)">
					<stop  offset="0" style="stop-color:#D0BCBA"/>
					<stop  offset="1" style="stop-color:#FEFDFD"/>
				</linearGradient>
				
					<linearGradient id="path17237_2_" gradientUnits="userSpaceOnUse" x1="176.6413" y1="56.257" x2="180.3007" y2="53.0911" gradientTransform="matrix(1.8247 0 0 -1.8247 -109.4832 166.4054)">
					<stop  offset="0" style="stop-color:#D0BCBA"/>
					<stop  offset="1" style="stop-color:#FEFDFD"/>
				</linearGradient>
				
					<path id="path17237" inkscape:export-filename="/home/zouzi/Desktop/date.png" inkscape:export-xdpi="90" inkscape:export-ydpi="90" sodipodi:nodetypes="cccc" opacity="0.539" fill="url(#path17237_1_)" stroke="url(#path17237_2_)" stroke-width="0.453" enable-background="new    " d="
					M214.346,63.474c-0.326,0.689-0.733,1.134-1.353,1.599c0.505,0.076,0.959-0.11,1.212-0.216
					C214.294,64.447,214.367,63.887,214.346,63.474z"/>
			</g>
			<path id="text2383" d="M207.558,62.604h1.389v0.599h-2.294v-0.599l1.152-1.017c0.103-0.093,0.179-0.184,0.228-0.273
				c0.049-0.089,0.074-0.181,0.074-0.277c0-0.148-0.05-0.267-0.15-0.358c-0.098-0.09-0.23-0.135-0.396-0.135
				c-0.127,0-0.265,0.028-0.416,0.082c-0.151,0.054-0.313,0.134-0.485,0.241v-0.694c0.183-0.061,0.365-0.106,0.544-0.138
				c0.179-0.032,0.355-0.048,0.527-0.048c0.378,0,0.671,0.083,0.88,0.25c0.21,0.166,0.315,0.398,0.315,0.696
				c0,0.172-0.044,0.333-0.133,0.482c-0.089,0.148-0.275,0.347-0.56,0.596L207.558,62.604 M210.916,60.716l-0.892,1.321h0.892
				V60.716 M210.781,60.045h0.905v1.992h0.45v0.59h-0.45v0.575h-0.77v-0.575h-1.4v-0.698L210.781,60.045"/>
		</g>
		<g id="g16973" transform="matrix(1,0,0,0.9988278,29.781573,-12.546049)">
			
				<linearGradient id="rect14987_1_" gradientUnits="userSpaceOnUse" x1="155.898" y1="99.8463" x2="155.3226" y2="99.8463" gradientTransform="matrix(1.9671 0 0 -1.9584 -130.2441 262.3154)">
				<stop  offset="0" style="stop-color:#978888"/>
				<stop  offset="1" style="stop-color:#FBFCFC"/>
			</linearGradient>
			
				<linearGradient id="rect14987_2_" gradientUnits="userSpaceOnUse" x1="180.1417" y1="95.2719" x2="180.1417" y2="98.6791" gradientTransform="matrix(1.8247 0 0 -1.8225 -152.701 242.1165)">
				<stop  offset="0" style="stop-color:#D0BCBA"/>
				<stop  offset="1" style="stop-color:#6C6C6C"/>
			</linearGradient>
			<path id="rect14987" fill="url(#rect14987_1_)" stroke="url(#rect14987_2_)" stroke-width="0.666" stroke-linecap="round" d="
				M175.995,65.407L175.995,65.407c0.19,0,0.344,0.242,0.344,0.54v1.662c0,0.298-0.154,0.54-0.344,0.54l0,0
				c-0.19,0-0.344-0.242-0.344-0.54v-1.662C175.651,65.649,175.805,65.407,175.995,65.407z"/>
			
				<linearGradient id="rect15974_1_" gradientUnits="userSpaceOnUse" x1="152.9953" y1="99.8463" x2="152.4199" y2="99.8463" gradientTransform="matrix(1.9671 0 0 -1.9584 -122.7245 262.3154)">
				<stop  offset="0" style="stop-color:#978888"/>
				<stop  offset="1" style="stop-color:#FBFCFC"/>
			</linearGradient>
			
				<linearGradient id="rect15974_2_" gradientUnits="userSpaceOnUse" x1="177.0124" y1="95.2719" x2="177.0124" y2="98.6791" gradientTransform="matrix(1.8247 0 0 -1.8225 -145.182 242.1165)">
				<stop  offset="0" style="stop-color:#D0BCBA"/>
				<stop  offset="1" style="stop-color:#6C6C6C"/>
			</linearGradient>
			<path id="rect15974" fill="url(#rect15974_1_)" stroke="url(#rect15974_2_)" stroke-width="0.666" stroke-linecap="round" d="
				M177.804,65.407L177.804,65.407c0.19,0,0.344,0.242,0.344,0.54v1.662c0,0.298-0.154,0.54-0.344,0.54l0,0
				c-0.19,0-0.344-0.242-0.344-0.54v-1.662C177.46,65.649,177.614,65.407,177.804,65.407z"/>
			
				<linearGradient id="rect15980_1_" gradientUnits="userSpaceOnUse" x1="150.0921" y1="99.8463" x2="149.5163" y2="99.8463" gradientTransform="matrix(1.9671 0 0 -1.9584 -115.2054 262.3154)">
				<stop  offset="0" style="stop-color:#978888"/>
				<stop  offset="1" style="stop-color:#FBFCFC"/>
			</linearGradient>
			
				<linearGradient id="rect15980_2_" gradientUnits="userSpaceOnUse" x1="173.883" y1="95.2719" x2="173.883" y2="98.6791" gradientTransform="matrix(1.8247 0 0 -1.8225 -137.6623 242.1165)">
				<stop  offset="0" style="stop-color:#D0BCBA"/>
				<stop  offset="1" style="stop-color:#6C6C6C"/>
			</linearGradient>
			<path id="rect15980" fill="url(#rect15980_1_)" stroke="url(#rect15980_2_)" stroke-width="0.666" stroke-linecap="round" d="
				M179.613,65.407L179.613,65.407c0.19,0,0.344,0.242,0.344,0.54v1.662c0,0.298-0.154,0.54-0.344,0.54l0,0
				c-0.19,0-0.344-0.242-0.344-0.54v-1.662C179.269,65.649,179.423,65.407,179.613,65.407z"/>
			
				<linearGradient id="rect15986_1_" gradientUnits="userSpaceOnUse" x1="147.1891" y1="99.8463" x2="146.6138" y2="99.8463" gradientTransform="matrix(1.9671 0 0 -1.9584 -107.6863 262.3154)">
				<stop  offset="0" style="stop-color:#978888"/>
				<stop  offset="1" style="stop-color:#FBFCFC"/>
			</linearGradient>
			
				<linearGradient id="rect15986_2_" gradientUnits="userSpaceOnUse" x1="170.7532" y1="95.2719" x2="170.7532" y2="98.6791" gradientTransform="matrix(1.8247 0 0 -1.8225 -130.1432 242.1165)">
				<stop  offset="0" style="stop-color:#D0BCBA"/>
				<stop  offset="1" style="stop-color:#6C6C6C"/>
			</linearGradient>
			<path id="rect15986" fill="url(#rect15986_1_)" stroke="url(#rect15986_2_)" stroke-width="0.666" stroke-linecap="round" d="
				M181.422,65.407L181.422,65.407c0.19,0,0.344,0.242,0.344,0.54v1.662c0,0.298-0.154,0.54-0.344,0.54l0,0
				c-0.19,0-0.344-0.242-0.344-0.54v-1.662C181.078,65.649,181.232,65.407,181.422,65.407z"/>
			
				<linearGradient id="rect15992_1_" gradientUnits="userSpaceOnUse" x1="144.2862" y1="99.8463" x2="143.7108" y2="99.8463" gradientTransform="matrix(1.9671 0 0 -1.9584 -100.1666 262.3154)">
				<stop  offset="0" style="stop-color:#978888"/>
				<stop  offset="1" style="stop-color:#FBFCFC"/>
			</linearGradient>
			
				<linearGradient id="rect15992_2_" gradientUnits="userSpaceOnUse" x1="167.6238" y1="95.2719" x2="167.6238" y2="98.6791" gradientTransform="matrix(1.8247 0 0 -1.8225 -122.6241 242.1165)">
				<stop  offset="0" style="stop-color:#D0BCBA"/>
				<stop  offset="1" style="stop-color:#6C6C6C"/>
			</linearGradient>
			<path id="rect15992" fill="url(#rect15992_1_)" stroke="url(#rect15992_2_)" stroke-width="0.666" stroke-linecap="round" d="
				M183.231,65.407L183.231,65.407c0.19,0,0.344,0.242,0.344,0.54v1.662c0,0.298-0.154,0.54-0.344,0.54l0,0
				c-0.19,0-0.344-0.242-0.344-0.54v-1.662C182.887,65.649,183.041,65.407,183.231,65.407z"/>
		</g>
	</g>
</g>
</svg>
