<?xml version="1.0" encoding="UTF-8" standalone="no"?>
<!-- Created with Inkscape (http://www.inkscape.org/) -->

<svg
   width="24"
   height="24"
   viewBox="0 0 6.35 6.35"
   version="1.1"
   id="svg5"
   xmlns="http://www.w3.org/2000/svg"
   xmlns:svg="http://www.w3.org/2000/svg">
  <defs
     id="defs2" />
  <g
     id="layer1">
    <g
       id="g31407"
       transform="matrix(1.0033287,0,0,1.0015889,-3.2719843,-2.8013339)">
      <path
         style="fill:#ffffff;fill-opacity:1;stroke:#ffffff;stroke-width:0.133045;stroke-linecap:butt;stroke-linejoin:bevel;stroke-miterlimit:4;stroke-dasharray:none;stroke-opacity:1"
         d="M 8.2945496,8.762716 9.2198479,7.841169 v 0.925298 z"
         id="path26586" />
      <rect
         style="fill:none;stroke:#ffffff;stroke-width:0.396875;stroke-linecap:butt;stroke-linejoin:bevel;stroke-miterlimit:4;stroke-dasharray:none;stroke-opacity:1;paint-order:normal"
         id="rect846"
         width="5.9323678"
         height="5.138617"
         x="3.4594116"
         y="3.7995901" />
      <ellipse
         style="fill:none;stroke:#ffffff;stroke-width:0.308034;stroke-linejoin:round;stroke-miterlimit:4;stroke-dasharray:none;stroke-opacity:1"
         id="path1134"
         cx="4.3089285"
         cy="3.5907738"
         rx="0.11056615"
         ry="0.63973296" />
      <ellipse
         style="fill:none;stroke:#ffffff;stroke-width:0.308034;stroke-linejoin:round;stroke-miterlimit:4;stroke-dasharray:none;stroke-opacity:1"
         id="path1134-4"
         cx="5.3672619"
         cy="3.5907738"
         rx="0.11056615"
         ry="0.63973296" />
      <ellipse
         style="fill:none;stroke:#ffffff;stroke-width:0.308034;stroke-linejoin:round;stroke-miterlimit:4;stroke-dasharray:none;stroke-opacity:1"
         id="path1134-5"
         cx="6.4255953"
         cy="3.5907738"
         rx="0.11056618"
         ry="0.63973284" />
      <ellipse
         style="fill:none;stroke:#ffffff;stroke-width:0.308034;stroke-linejoin:round;stroke-miterlimit:4;stroke-dasharray:none;stroke-opacity:1"
         id="path1134-4-4"
         cx="7.4839282"
         cy="3.5907738"
         rx="0.11056618"
         ry="0.63973284" />
      <ellipse
         style="fill:none;stroke:#ffffff;stroke-width:0.308034;stroke-linejoin:round;stroke-miterlimit:4;stroke-dasharray:none;stroke-opacity:1"
         id="path1134-4-4-1"
         cx="8.5422621"
         cy="3.5907738"
         rx="0.1105661"
         ry="0.63973278" />
      <path
         style="fill:none;stroke:#ffffff;stroke-width:0.264583px;stroke-linecap:butt;stroke-linejoin:miter;stroke-opacity:1"
         d="M 3.4395833,5.4050595 9.411607,5.4428571"
         id="path1339" />
      <g
         aria-label="mar"
         id="text23939"
         style="font-weight:800;font-size:1.41111px;line-height:1.25;font-family:Avenir;-inkscape-font-specification:'Avenir, Ultra-Bold';fill:#ffffff;stroke-width:0.264583"
         transform="translate(3.2505952,2.7970238)">
        <rect
           style="fill:#ffffff;fill-opacity:1;stroke:none;stroke-width:0.132292;stroke-linejoin:round;stroke-miterlimit:4;stroke-dasharray:none;stroke-opacity:1"
           id="rect30108"
           width="1.0583333"
           height="0.66145831"
           x="0.50011051"
           y="1.7601311" />
        <rect
           style="font-weight:800;font-size:1.41111px;line-height:1.25;font-family:Avenir;-inkscape-font-specification:'Avenir, Ultra-Bold';fill:#ffffff;fill-opacity:1;stroke:none;stroke-width:0.104586;stroke-linejoin:round;stroke-miterlimit:4;stroke-dasharray:none;stroke-opacity:1"
           id="rect30108-6"
           width="0.66145831"
           height="0.66145831"
           x="1.6772698"
           y="1.7601311" />
        <rect
           style="font-weight:800;font-size:1.41111px;line-height:1.25;font-family:Avenir;-inkscape-font-specification:'Avenir, Ultra-Bold';fill:#ffffff;fill-opacity:1;stroke:none;stroke-width:0.0935446;stroke-linejoin:round;stroke-miterlimit:4;stroke-dasharray:none;stroke-opacity:1"
           id="rect30108-6-4"
           width="0.52916664"
           height="0.66145831"
           x="2.47102"
           y="1.7601311" />
      </g>
      <g
         aria-label="21"
         id="text26013"
         style="font-weight:900;font-size:3.52778px;line-height:1.25;font-family:Avenir;-inkscape-font-specification:'Avenir, Heavy';fill:#ffffff;stroke-width:0.264583"
         transform="translate(3.2505952,2.7970238)">
        <path
           d="M 1.4308278,5.2677317 2.4009673,4.3293422 q 0.042333,-0.042333 0.088195,-0.088195 0.045861,-0.049389 0.081139,-0.1023056 0.038806,-0.052917 0.0635,-0.1093612 0.024694,-0.059972 0.024694,-0.1234723 0,-0.077611 -0.03175,-0.1375834 Q 2.5985233,3.7084527 2.5491343,3.666119 2.4997453,3.623786 2.4327176,3.602619 2.3692176,3.577925 2.2951341,3.577925 2.136384,3.577925 2.0340784,3.669647 1.9317728,3.761369 1.9106061,3.9165916 L 1.4661056,3.8813141 Q 1.4802167,3.7084529 1.5472446,3.577925 1.6178002,3.4438694 1.7271613,3.3556749 1.8365225,3.2674804 1.9811615,3.2216193 q 0.144639,-0.045861 0.3139724,-0.045861 0.1693335,0 0.3139725,0.045861 0.1481667,0.042333 0.2575279,0.1305278 0.1093612,0.084667 0.1728612,0.2187224 0.0635,0.1340556 0.0635,0.3139724 0,0.2363613 -0.1093612,0.4092225 Q 2.887801,4.4633978 2.7184675,4.6186202 L 1.9458837,5.3347595 H 3.1029956 V 5.7157598 H 1.4308278 Z"
           id="path29398" />
        <path
           d="M 4.0904983,3.7049251 3.6213035,4.1388421 3.3743589,3.8460363 4.1293038,3.2180915 H 4.5138319 V 5.7157598 H 4.0904983 Z"
           id="path29400" />
      </g>
    </g>
  </g>
</svg>
