<?xml version="1.0" encoding="UTF-8" standalone="no"?>
<!-- Created with Inkscape (http://www.inkscape.org/) -->

<svg
   width="24"
   height="24"
   viewBox="0 0 6.3499999 6.3500002"
   version="1.1"
   id="svg5"
   inkscape:version="1.1.1 (c3084ef, 2021-09-22)"
   sodipodi:docname="monologo.svg"
   xmlns:inkscape="http://www.inkscape.org/namespaces/inkscape"
   xmlns:sodipodi="http://sodipodi.sourceforge.net/DTD/sodipodi-0.dtd"
   xmlns="http://www.w3.org/2000/svg"
   xmlns:svg="http://www.w3.org/2000/svg">
  <sodipodi:namedview
     id="namedview7"
     pagecolor="#ffffff"
     bordercolor="#666666"
     borderopacity="1.0"
     inkscape:pageshadow="2"
     inkscape:pageopacity="0.0"
     inkscape:pagecheckerboard="0"
     inkscape:document-units="mm"
     showgrid="false"
     units="px"
     inkscape:zoom="7"
     inkscape:cx="21.928571"
     inkscape:cy="9.3571429"
     inkscape:window-width="1312"
     inkscape:window-height="969"
     inkscape:window-x="0"
     inkscape:window-y="25"
     inkscape:window-maximized="0"
     inkscape:current-layer="layer1" />
  <defs
     id="defs2" />
  <g
     inkscape:label="Layer 1"
     inkscape:groupmode="layer"
     id="layer1">
    <rect
       style="fill:none;stroke:#ffffff;stroke-width:0.396875;stroke-linejoin:round;stroke-miterlimit:4;stroke-dasharray:none;stroke-opacity:1"
       id="rect846"
       width="5.9323678"
       height="5.138617"
       x="0.20881632"
       y="1.0025663" />
    <ellipse
       style="fill:none;stroke:#ffffff;stroke-width:0.308034;stroke-linejoin:round;stroke-miterlimit:4;stroke-dasharray:none;stroke-opacity:1"
       id="path1134"
       cx="1.0583332"
       cy="0.79375011"
       rx="0.11056615"
       ry="0.63973296" />
    <ellipse
       style="fill:none;stroke:#ffffff;stroke-width:0.308034;stroke-linejoin:round;stroke-miterlimit:4;stroke-dasharray:none;stroke-opacity:1"
       id="path1134-4"
       cx="2.1166666"
       cy="0.79374993"
       rx="0.11056615"
       ry="0.63973296" />
    <ellipse
       style="fill:none;stroke:#ffffff;stroke-width:0.308034;stroke-linejoin:round;stroke-miterlimit:4;stroke-dasharray:none;stroke-opacity:1"
       id="path1134-5"
       cx="3.175"
       cy="0.79374999"
       rx="0.11056618"
       ry="0.63973284" />
    <ellipse
       style="fill:none;stroke:#ffffff;stroke-width:0.308034;stroke-linejoin:round;stroke-miterlimit:4;stroke-dasharray:none;stroke-opacity:1"
       id="path1134-4-4"
       cx="4.2333331"
       cy="0.79374999"
       rx="0.11056618"
       ry="0.63973284" />
    <ellipse
       style="fill:none;stroke:#ffffff;stroke-width:0.308034;stroke-linejoin:round;stroke-miterlimit:4;stroke-dasharray:none;stroke-opacity:1"
       id="path1134-4-4-1"
       cx="5.2916665"
       cy="0.79374999"
       rx="0.1105661"
       ry="0.63973278" />
    <path
       style="fill:none;stroke:#ffffff;stroke-width:0.264583px;stroke-linecap:butt;stroke-linejoin:miter;stroke-opacity:1"
       d="M 0.18898809,2.6080357 6.1610118,2.6458333"
       id="path1339"
       sodipodi:nodetypes="cc" />
    <g
       aria-label="mar"
       id="text23939"
       style="font-weight:800;font-size:1.41111px;line-height:1.25;font-family:Avenir;-inkscape-font-specification:'Avenir, Ultra-Bold';fill:#ffffff;stroke-width:0.264583">
      <path
         d="m 0.53936016,1.728005 h 0.20319985 v 0.093133 h 0.002822 q 0.009878,-0.019756 0.0282222,-0.039511 0.0183444,-0.019756 0.0437444,-0.035278 0.0254,-0.015522 0.0578555,-0.0254 0.0324555,-0.00988 0.0705555,-0.00988 0.0719667,0 0.12699999,0.029633 0.056444,0.029633 0.084667,0.093133 0.036689,-0.066322 0.0889,-0.094544 0.052211,-0.028222 0.128411,-0.028222 0.069144,0 0.115711,0.023989 0.047978,0.022578 0.074789,0.0635 0.028222,0.039511 0.039511,0.094544 0.0127,0.053622 0.0127,0.115711 V 2.4138045 H 1.4057817 V 2.0144604 q 0,-0.047978 -0.021167,-0.081844 -0.019756,-0.035278 -0.071967,-0.035278 -0.036689,0 -0.062089,0.0127 -0.023989,0.011289 -0.039511,0.032456 -0.014111,0.021167 -0.021167,0.049389 -0.00564,0.028222 -0.00564,0.059267 V 2.4138045 H 0.97257094 V 2.0511492 q 0,-0.018344 -0.001411,-0.045155 -0.001411,-0.026811 -0.009878,-0.0508 -0.008467,-0.023989 -0.0282222,-0.040922 -0.0183444,-0.016933 -0.0550333,-0.016933 -0.0409222,0 -0.0663222,0.015522 -0.0254,0.014111 -0.0395111,0.039511 -0.0127,0.023989 -0.0169333,0.055033 -0.004233,0.031044 -0.004233,0.064911 V 2.4138045 H 0.53936016 Z"
         id="path29391" />
      <path
         d="m 2.1962018,2.3277268 h -0.00282 q -0.035278,0.055033 -0.094544,0.079022 -0.057856,0.023989 -0.1227666,0.023989 -0.047978,0 -0.093133,-0.014111 -0.043745,-0.0127 -0.077611,-0.039511 -0.033867,-0.026811 -0.053622,-0.066322 -0.019756,-0.039511 -0.019756,-0.091722 0,-0.059267 0.021167,-0.1001888 0.022578,-0.040922 0.059267,-0.067733 0.0381,-0.026811 0.086078,-0.040922 0.047978,-0.015522 0.098778,-0.022578 0.052211,-0.00706 0.103011,-0.00847 0.052211,-0.00141 0.095956,-0.00141 0,-0.056444 -0.040922,-0.0889 -0.039511,-0.033867 -0.094544,-0.033867 -0.052211,0 -0.095955,0.022578 -0.042333,0.021167 -0.0762,0.059267 L 1.775691,1.8211383 q 0.059267,-0.055033 0.1382888,-0.081844 0.079022,-0.028222 0.1636887,-0.028222 0.093133,0 0.1523999,0.023989 0.060678,0.022578 0.095956,0.067733 0.036689,0.045156 0.0508,0.1114777 0.014111,0.064911 0.014111,0.1509888 V 2.4138045 H 2.1962018 Z M 2.1439907,2.1132381 q -0.023989,0 -0.060678,0.00282 -0.035278,0.00141 -0.069144,0.011289 -0.032456,0.00988 -0.056444,0.029633 -0.022578,0.019756 -0.022578,0.055033 0,0.0381 0.032456,0.056444 0.032455,0.018344 0.067733,0.018344 0.031045,0 0.059267,-0.00847 0.029633,-0.00847 0.052211,-0.023989 0.022578,-0.015522 0.035278,-0.039511 0.014111,-0.023989 0.014111,-0.056444 v -0.045156 z"
         id="path29393" />
      <path
         d="m 2.5237337,1.728005 h 0.2116665 v 0.1100666 h 0.00282 q 0.033867,-0.0635 0.080433,-0.094544 0.046567,-0.032456 0.1171222,-0.032456 0.018344,0 0.036689,0.00141 0.018344,0.00141 0.033867,0.00564 v 0.1933221 q -0.022578,-0.00706 -0.045156,-0.00988 -0.021167,-0.00423 -0.045156,-0.00423 -0.060678,0 -0.095955,0.016933 -0.035278,0.016933 -0.055033,0.047978 -0.018344,0.029633 -0.023989,0.071967 -0.00564,0.042333 -0.00564,0.093133 V 2.4138045 H 2.5237337 Z"
         id="path29395" />
    </g>
    <g
       aria-label="21"
       id="text26013"
       style="font-weight:900;font-size:3.52778px;line-height:1.25;font-family:Avenir;-inkscape-font-specification:'Avenir, Heavy';fill:#ffffff;stroke-width:0.264583">
      <path
         d="M 1.4308278,5.2677317 2.4009673,4.3293422 q 0.042333,-0.042333 0.088195,-0.088195 0.045861,-0.049389 0.081139,-0.1023056 0.038806,-0.052917 0.0635,-0.1093612 0.024694,-0.059972 0.024694,-0.1234723 0,-0.077611 -0.03175,-0.1375834 Q 2.5985233,3.7084527 2.5491343,3.666119 2.4997453,3.623786 2.4327176,3.602619 2.3692176,3.577925 2.2951341,3.577925 2.136384,3.577925 2.0340784,3.669647 1.9317728,3.761369 1.9106061,3.9165916 L 1.4661056,3.8813141 Q 1.4802167,3.7084529 1.5472446,3.577925 1.6178002,3.4438694 1.7271613,3.3556749 1.8365225,3.2674804 1.9811615,3.2216193 q 0.144639,-0.045861 0.3139724,-0.045861 0.1693335,0 0.3139725,0.045861 0.1481667,0.042333 0.2575279,0.1305278 0.1093612,0.084667 0.1728612,0.2187224 0.0635,0.1340556 0.0635,0.3139724 0,0.2363613 -0.1093612,0.4092225 Q 2.887801,4.4633978 2.7184675,4.6186202 L 1.9458837,5.3347595 H 3.1029956 V 5.7157598 H 1.4308278 Z"
         id="path29398" />
      <path
         d="M 4.2558631,3.7049251 3.7866683,4.1388421 3.5397237,3.8460363 4.2946686,3.2180915 H 4.6791967 V 5.7157598 H 4.2558631 Z"
         id="path29400" />
    </g>
    <path
       style="fill:#ffffff;fill-opacity:1;stroke:#ffffff;stroke-width:0.402878;stroke-linecap:butt;stroke-linejoin:round;stroke-miterlimit:4;stroke-dasharray:none;stroke-opacity:1"
       d="M 6.1485857,5.2653242 5.2285223,6.1485886 V 5.2285215 Z"
       id="path26586" />
  </g>
</svg>
