<?xml version="1.0" encoding="UTF-8" standalone="no"?>
<svg
   xmlns:dc="http://purl.org/dc/elements/1.1/"
   xmlns:cc="http://creativecommons.org/ns#"
   xmlns:rdf="http://www.w3.org/1999/02/22-rdf-syntax-ns#"
   xmlns:svg="http://www.w3.org/2000/svg"
   xmlns="http://www.w3.org/2000/svg"
   width="24"
   height="24"
   viewBox="0 0 6.35 6.35"
   version="1.1"
   id="svg5">
  <metadata
     id="metadata854">
    <rdf:RDF>
      <cc:Work
         rdf:about="">
        <dc:format>image/svg+xml</dc:format>
        <dc:type
           rdf:resource="http://purl.org/dc/dcmitype/StillImage" />
        <dc:title></dc:title>
      </cc:Work>
    </rdf:RDF>
  </metadata>
  <defs
     id="defs2" />
  <path
     style="fill:#000000;fill-opacity:1;stroke:none;stroke-width:0.139344;stroke-linecap:butt;stroke-linejoin:bevel;stroke-miterlimit:4;stroke-dasharray:none;stroke-opacity:1"
     d="M 4.7907768,5.8652451 C 4.7930068,5.5106195 5.5665386,4.7791787 5.8609833,4.7758348 l 0.00881,1.0936293 c -1.0790165,-0.00422 0,0 -1.0790165,-0.00422 z"
     id="path26586" />
  <rect
     style="fill:none;stroke:#000000;stroke-width:0.397933;stroke-linecap:butt;stroke-linejoin:miter;stroke-miterlimit:4;stroke-dasharray:none;stroke-opacity:1;paint-order:normal"
     id="rect846"
     width="5.9521151"
     height="5.1467819"
     x="0.19894266"
     y="1.0042933"
     rx="0.32761267"
     ry="0.32761267" />
  <ellipse
     style="fill:none;stroke:#000000;stroke-width:0.308791;stroke-linejoin:round;stroke-miterlimit:4;stroke-dasharray:none;stroke-opacity:1"
     id="path1134"
     cx="1.0512873"
     cy="0.79514527"
     rx="0.11093419"
     ry="0.64074945" />
  <ellipse
     style="fill:none;stroke:#000000;stroke-width:0.308791;stroke-linejoin:round;stroke-miterlimit:4;stroke-dasharray:none;stroke-opacity:1"
     id="path1134-4"
     cx="2.1131437"
     cy="0.79514527"
     rx="0.11093419"
     ry="0.64074945" />
  <ellipse
     style="fill:none;stroke:#000000;stroke-width:0.308791;stroke-linejoin:round;stroke-miterlimit:4;stroke-dasharray:none;stroke-opacity:1"
     id="path1134-5"
     cx="3.175"
     cy="0.79514527"
     rx="0.11093422"
     ry="0.64074934" />
  <ellipse
     style="fill:none;stroke:#000000;stroke-width:0.308791;stroke-linejoin:round;stroke-miterlimit:4;stroke-dasharray:none;stroke-opacity:1"
     id="path1134-4-4"
     cx="4.2368555"
     cy="0.79514527"
     rx="0.11093422"
     ry="0.64074934" />
  <ellipse
     style="fill:none;stroke:#000000;stroke-width:0.308791;stroke-linejoin:round;stroke-miterlimit:4;stroke-dasharray:none;stroke-opacity:1"
     id="path1134-4-4-1"
     cx="5.2987123"
     cy="0.79514527"
     rx="0.11093415"
     ry="0.64074928" />
  <path
     style="fill:none;stroke:#000000;stroke-width:0.26523300000000000px;stroke-linecap:butt;stroke-linejoin:miter;stroke-opacity:1"
     d="M 0.17904834,2.6123137 6.1709511,2.6501714"
     id="path1339" />
  <g
     aria-label="mar"
     id="text23939"
     style="font-weight:800;font-size:1.41111px;line-height:1.25;font-family:Avenir;-inkscape-font-specification:'Avenir, Ultra-Bold';fill:#000000;fill-opacity:1;stroke-width:0.264583"
     transform="matrix(1.0033287,0,0,1.0015889,-0.01056884,1.3409112e-4)">
    <rect
       style="fill:#000000;fill-opacity:1;stroke:none;stroke-width:0.132292;stroke-linejoin:round;stroke-miterlimit:4;stroke-dasharray:none;stroke-opacity:1"
       id="rect30108"
       width="1.0583333"
       height="0.66145831"
       x="0.50011051"
       y="1.7601311"
       rx="0.12114554"
       ry="0.12114554" />
    <rect
       style="font-weight:800;font-size:1.41111px;line-height:1.25;font-family:Avenir;-inkscape-font-specification:'Avenir, Ultra-Bold';fill:#000000;fill-opacity:1;stroke:none;stroke-width:0.104586;stroke-linejoin:round;stroke-miterlimit:4;stroke-dasharray:none;stroke-opacity:1"
       id="rect30108-6"
       width="0.66145831"
       height="0.66145831"
       x="1.6772698"
       y="1.7601311"
       rx="0.084801875"
       ry="0.084801875" />
    <rect
       style="font-weight:800;font-size:1.41111px;line-height:1.25;font-family:Avenir;-inkscape-font-specification:'Avenir, Ultra-Bold';fill:#000000;fill-opacity:1;stroke:none;stroke-width:0.0935446;stroke-linejoin:round;stroke-miterlimit:4;stroke-dasharray:none;stroke-opacity:1"
       id="rect30108-6-4"
       width="0.52916664"
       height="0.66145831"
       x="2.47102"
       y="1.7601311"
       rx="0.10903098"
       ry="0.10903098" />
  </g>
  <g
     aria-label="21"
     id="text26013"
     style="font-weight:900;font-size:3.52777999999999992px;line-height:1.25;font-family:Avenir;-inkscape-font-specification:'Avenir, Heavy';fill:#000000;stroke-width:0.264583;fill-opacity:1"
     transform="matrix(1.0033287,0,0,1.0015889,-0.01056884,1.3409112e-4)">
    <path
       d="M 1.4308278,5.2677317 C 1.5477829,4.9917426 2.4009673,4.3293422 2.4009673,4.3293422 l 0.088195,-0.088195 c 0.030574,-0.032926 0.05762,-0.067028 0.081139,-0.1023056 0.025871,-0.035278 0.047037,-0.071732 0.0635,-0.1093612 0.016463,-0.00873 0.024694,-0.081139 0.024694,-0.1234723 0,-0.051741 -0.010583,-0.097602 -0.03175,-0.1375834 C 2.6079306,3.7284434 2.5820603,3.6943415 2.5491343,3.666119 2.5162083,3.637897 2.4774027,3.6167303 2.4327176,3.602619 2.3903843,3.5861563 2.3445231,3.577925 2.2951341,3.577925 c -0.1058334,0 -0.192852,0.030574 -0.2610557,0.091722 C 1.9658747,3.730795 1.9247172,3.8131099 1.9106061,3.9165916 L 1.4661056,3.8813141 c 0.00941,-0.1152408 0.036454,-0.2163705 0.081139,-0.3033891 0.047037,-0.08937 0.1070093,-0.1634538 0.1799167,-0.2222501 0.072908,-0.058796 0.1575742,-0.1034815 0.2540002,-0.1340556 0.096426,-0.030574 0.2010835,-0.045861 0.3139724,-0.045861 0.112889,0 0.2175465,0.015287 0.3139725,0.045861 0.098778,0.028222 0.1846204,0.071731 0.2575279,0.1305278 0.072908,0.056445 0.1305279,0.1293521 0.1728612,0.2187224 0.042333,0.08937 0.0635,0.1940279 0.0635,0.3139724 0,0.1575742 -0.036454,0.2939817 -0.1093612,0.4092225 C 2.9230788,4.4069533 2.8313565,4.5151386 2.7184675,4.6186202 L 1.9458837,5.3347595 H 3.1029956 V 5.7157598 H 1.4308278 c 0,0 -0.1169551,-0.172039 0,-0.4480281 z"
       id="path29398"
       style="fill:#000000;fill-opacity:1;paint-order:stroke markers fill" />
    <path
       d="M 4.0904983,3.7049251 3.6213035,4.1388421 3.3743589,3.8460363 c 0,0 0.5408395,-0.5505083 0.7549449,-0.6279448 0.2141054,-0.077436 0.3845281,0 0.3845281,0 V 5.7157598 H 4.0904983 Z"
       id="path29400"
       style="fill:#000000;fill-opacity:1" />
  </g>
</svg>
